<svg version="1.2" baseProfile="tiny-ps" xmlns="http://www.w3.org/2000/svg" viewBox="0 0 678 343" width="678" height="343">
	<title>Ativo 13-svg</title>
	<style>
		tspan { white-space:pre }
		.shp0 { fill: #ffffff } 
	</style>
	<g id="Camada_2">
		<g id="Camada_1-2">
			<path id="Layer" fill-rule="evenodd" class="shp0" d="M261.25 0C262.94 0 264.62 0.33 266.18 0.97C267.75 1.62 269.17 2.57 270.36 3.76C271.56 4.96 272.51 6.38 273.16 7.94C273.81 9.5 274.14 11.18 274.14 12.87L274.14 147.24L262 159.39C261.35 160.05 260.83 160.83 260.48 161.69C260.13 162.55 259.95 163.46 259.95 164.39C259.95 165.32 260.13 166.23 260.48 167.09C260.83 167.95 261.35 168.73 262 169.39L274.12 181.55L274.12 329.74C274.12 331.43 273.79 333.1 273.14 334.67C272.49 336.23 271.55 337.65 270.35 338.84C269.16 340.04 267.74 340.98 266.18 341.63C264.61 342.28 262.94 342.61 261.25 342.61L12.87 342.61C11.18 342.61 9.51 342.28 7.94 341.63C6.38 340.98 4.96 340.04 3.77 338.84C2.57 337.65 1.63 336.23 0.98 334.67C0.33 333.1 0 331.43 0 329.74L0 12.87C0 11.18 0.33 9.51 0.98 7.94C1.63 6.38 2.57 4.96 3.77 3.77C4.96 2.57 6.38 1.63 7.94 0.98C9.51 0.33 11.18 0 12.87 0L261.25 0ZM67.78 269.9C68.23 270.97 68.89 271.95 69.72 272.76C70.55 273.58 71.53 274.22 72.61 274.66C73.68 275.1 74.84 275.33 76 275.32L96.49 275.32C96.49 274.88 96.49 274.44 96.49 274C96.49 270.06 97.27 266.16 98.77 262.52C100.28 258.88 102.49 255.57 105.28 252.79C108.06 250 111.37 247.79 115.01 246.28C118.65 244.78 122.55 244 126.49 244L207.09 244L207.09 196.52L179.96 169.34C179.31 168.68 178.79 167.9 178.44 167.04C178.09 166.18 177.91 165.27 177.91 164.34C177.91 163.41 178.09 162.5 178.44 161.64C178.79 160.78 179.31 160 179.96 159.34L207.09 132.16L207.09 76.1C207.09 74.93 206.86 73.78 206.41 72.7C205.97 71.62 205.31 70.64 204.49 69.81C203.66 68.99 202.68 68.33 201.6 67.89C200.52 67.44 199.37 67.21 198.2 67.21L76 67.21C74.83 67.2 73.67 67.43 72.59 67.88C71.5 68.32 70.52 68.97 69.69 69.8C68.86 70.63 68.2 71.61 67.75 72.69C67.3 73.77 67.07 74.93 67.07 76.1L67.07 266.52C67.08 267.68 67.32 268.83 67.78 269.9Z" />
			<path id="Layer" fill-rule="evenodd" class="shp0" d="M367.48 231.32C367.99 231.32 368.22 231.55 368.22 232.07L368.22 272.88C368.23 272.99 368.22 273.1 368.18 273.21C368.14 273.31 368.09 273.41 368.01 273.49C367.94 273.57 367.85 273.64 367.74 273.68C367.64 273.73 367.53 273.75 367.42 273.75C366.45 273.9 365.48 274.04 364.51 274.15C363.54 274.26 362.57 274.36 361.59 274.44C360.62 274.51 359.64 274.57 358.66 274.61C357.69 274.65 356.71 274.67 355.73 274.67C350.49 274.67 347.04 273.67 345.43 271.62C343.82 269.57 343.07 265.29 343.07 258.78C343.07 253.43 343.47 250.32 344.45 247.78C346.23 243.92 349.45 243.17 356.13 243C356.79 242.99 357.46 242.99 358.12 243.01C358.78 243.02 359.45 243.04 360.11 243.06C360.77 243.09 361.43 243.13 362.1 243.18C362.76 243.22 363.42 243.28 364.08 243.34L364.08 232.07C364.08 231.55 364.31 231.32 364.77 231.32L367.48 231.32ZM364.08 246.63L356.13 246.63C352.28 246.63 349.8 247.38 348.76 248.93C347.72 250.48 347.27 253.71 347.27 258.72C347.27 263.73 347.73 267.13 348.71 268.72C349.69 270.31 352.05 271.03 355.71 271.03C356.41 271.03 357.11 271.02 357.8 270.99C358.5 270.97 359.2 270.93 359.89 270.88C360.59 270.83 361.29 270.77 361.98 270.7C362.68 270.63 363.37 270.55 364.06 270.45L364.08 246.63Z" />
			<path id="Layer" fill-rule="evenodd" class="shp0" d="M403.8 245.88C405.41 247.88 406.27 251.81 406.33 257.74L406.33 259.41C406.33 260.51 406.1 260.85 404.55 260.85L385.72 260.85C385.78 264.94 386.36 267.64 387.45 268.97C388.54 270.29 390.73 270.97 394.07 270.97L403.07 270.97C403.59 270.97 403.82 271.19 403.82 271.71L403.82 273.5C403.83 273.59 403.81 273.69 403.78 273.78C403.75 273.87 403.7 273.95 403.63 274.02C403.57 274.09 403.49 274.15 403.41 274.19C403.32 274.23 403.23 274.25 403.13 274.25C402.37 274.32 401.62 274.39 400.86 274.44C400.1 274.49 399.34 274.54 398.59 274.57C397.83 274.6 397.07 274.63 396.31 274.64C395.55 274.65 394.79 274.66 394.03 274.65C388.68 274.65 385.74 273.96 383.84 271.43C381.94 268.9 381.48 265.43 381.48 258.76C381.48 252.37 382.28 248.11 383.84 246.04C385.4 243.97 388.84 242.93 394.03 242.93C399 243 402.24 243.93 403.8 245.88ZM387.39 248.71C386.39 250.03 385.78 252.85 385.72 257.11L402.13 257.11C402.07 252.79 401.5 249.97 400.52 248.65C399.54 247.33 397.35 246.65 394.07 246.65C390.79 246.65 388.43 247.32 387.39 248.71Z" />
			<path id="Layer" class="shp0" d="M441.56 243.24C442.08 243.24 442.25 243.41 442.2 244.04L435.57 268.04C434.77 271.09 434.02 272.99 433.39 273.68C432.76 274.37 431.26 274.68 428.84 274.68C426.6 274.68 425.21 274.34 424.58 273.68C423.95 273.02 423.26 271.09 422.39 268.04L415.6 244.04C415.48 243.52 415.66 243.24 416.17 243.24L419.23 243.24C419.51 243.24 419.74 243.52 419.92 244.04L426.31 267.04C426.37 267.31 426.43 267.59 426.51 267.86C426.58 268.13 426.67 268.39 426.76 268.66C426.85 268.92 426.95 269.19 427.06 269.44C427.16 269.7 427.28 269.96 427.4 270.21C427.49 270.31 427.59 270.41 427.69 270.48C427.8 270.56 427.92 270.63 428.05 270.68C428.17 270.73 428.3 270.76 428.44 270.78C428.57 270.8 428.71 270.8 428.84 270.78C429 270.8 429.15 270.81 429.31 270.8C429.47 270.78 429.62 270.75 429.77 270.7C429.92 270.65 430.07 270.59 430.2 270.5C430.34 270.42 430.46 270.32 430.57 270.21C430.7 269.96 430.82 269.71 430.93 269.45C431.04 269.19 431.14 268.93 431.23 268.66C431.32 268.4 431.4 268.13 431.47 267.86C431.55 267.59 431.61 267.32 431.66 267.04L437.88 244.04C438.05 243.52 438.28 243.24 438.57 243.24L441.56 243.24Z" />
			<path id="Layer" fill-rule="evenodd" class="shp0" d="M475.41 245.88C477.02 247.88 477.89 251.81 477.94 257.74L477.94 259.41C477.94 260.51 477.71 260.85 476.16 260.85L457.33 260.85C457.39 264.94 457.97 267.64 459.06 268.97C460.15 270.29 462.34 270.97 465.68 270.97L474.68 270.97C475.2 270.97 475.43 271.19 475.43 271.71L475.43 273.5C475.44 273.59 475.42 273.69 475.39 273.78C475.36 273.87 475.31 273.95 475.24 274.02C475.18 274.09 475.1 274.15 475.02 274.19C474.93 274.23 474.84 274.25 474.74 274.25C473.98 274.32 473.23 274.39 472.47 274.44C471.71 274.49 470.95 274.54 470.2 274.57C469.44 274.6 468.68 274.63 467.92 274.64C467.16 274.65 466.4 274.66 465.64 274.65C460.29 274.65 457.35 273.96 455.45 271.43C453.55 268.9 453.09 265.43 453.09 258.76C453.09 252.37 453.9 248.11 455.45 246.04C457 243.97 460.45 242.93 465.64 242.93C470.57 243 473.86 243.93 475.41 245.88ZM459 248.71C458 250.03 457.39 252.85 457.33 257.11L473.74 257.11C473.68 252.79 473.11 249.97 472.13 248.65C471.15 247.33 468.96 246.65 465.68 246.65C462.4 246.65 460 247.32 459 248.71Z" />
			<path id="Layer" class="shp0" d="M494.12 231.32C494.64 231.32 494.87 231.55 494.87 232.01L494.87 273.63C494.87 274.15 494.64 274.38 494.12 274.38L491.41 274.38C490.89 274.38 490.66 274.15 490.66 273.63L490.66 232C490.66 231.54 490.89 231.31 491.41 231.31L494.12 231.32Z" />
			<path id="Layer" fill-rule="evenodd" class="shp0" d="M531.36 271.45C529.46 273.98 526.53 274.67 521 274.67C515.76 274.67 512.31 273.63 510.64 271.56C508.97 269.49 508.17 265.23 508.22 258.78C508.22 252.39 509.03 248.13 510.64 246.06C512.25 243.99 515.76 243 521 243C526.24 243 529.69 244 531.36 246.11C533.03 248.22 533.84 252.44 533.84 258.83C533.84 265.46 533.38 268.91 531.36 271.45ZM513.92 249C512.92 250.56 512.37 253.78 512.37 258.79C512.37 263.8 512.88 267.08 513.92 268.63C514.96 270.18 517.37 271 521 271C524.63 271 527 270.19 528.08 268.63C529.16 267.07 529.69 263.8 529.69 258.79C529.69 253.78 529.18 250.56 528.08 249C526.98 247.44 524.69 246.64 521 246.64C517.31 246.64 515 247.44 513.92 249Z" />
			<path id="Layer" fill-rule="evenodd" class="shp0" d="M569.82 246.06C571.43 248.13 572.23 252.45 572.23 258.95C572.23 264.31 571.89 267.36 570.8 269.95C569.36 273.58 565.67 274.67 559.17 274.67C558.51 274.67 557.85 274.67 557.19 274.66C556.54 274.65 555.88 274.63 555.22 274.6C554.56 274.57 553.91 274.53 553.25 274.49C552.59 274.44 551.94 274.39 551.28 274.33L551.28 284.92C551.28 285.44 551.05 285.67 550.59 285.67L547.88 285.67C547.36 285.67 547.13 285.44 547.13 284.92L547.13 244.56C547.13 244.1 547.42 243.81 547.94 243.7C548.9 243.57 549.87 243.46 550.84 243.37C551.8 243.27 552.77 243.19 553.74 243.13C554.71 243.07 555.68 243.02 556.65 242.99C557.63 242.96 558.6 242.95 559.57 242.95C564.81 243 568.26 244 569.82 246.06ZM551.28 246.63L551.28 270.58C554.22 270.87 556.86 270.99 559.17 270.99C563.02 270.99 565.5 270.24 566.48 268.74C567.46 267.24 568.03 263.9 568.03 258.89C568.03 253.88 567.51 250.49 566.53 248.89C565.55 247.29 563.25 246.59 559.53 246.59L551.28 246.63Z" />
			<path id="Layer" fill-rule="evenodd" class="shp0" d="M606.83 245.88C608.44 247.88 609.31 251.81 609.36 257.74L609.36 259.41C609.36 260.51 609.13 260.85 607.58 260.85L588.75 260.85C588.81 264.94 589.39 267.64 590.48 268.97C591.57 270.29 593.76 270.97 597.1 270.97L606.1 270.97C606.62 270.97 606.85 271.19 606.85 271.71L606.85 273.5C606.86 273.59 606.84 273.69 606.81 273.78C606.78 273.87 606.73 273.95 606.66 274.02C606.6 274.09 606.52 274.15 606.44 274.19C606.35 274.23 606.26 274.25 606.16 274.25C605.4 274.32 604.65 274.39 603.89 274.44C603.13 274.49 602.37 274.54 601.62 274.57C600.86 274.6 600.1 274.63 599.34 274.64C598.58 274.65 597.82 274.66 597.06 274.65C591.71 274.65 588.77 273.96 586.87 271.43C584.97 268.9 584.51 265.43 584.51 258.76C584.51 252.37 585.32 248.11 586.87 246.04C588.42 243.97 591.87 242.93 597.06 242.93C602 243 605.28 243.93 606.83 245.88ZM588.75 257.11L605.16 257.11C605.1 252.79 604.53 249.97 603.55 248.65C602.57 247.33 600.38 246.65 597.1 246.65C593.82 246.65 591.46 247.32 590.42 248.71C589.42 250.03 588.81 252.85 588.75 257.11Z" />
			<path id="Layer" fill-rule="evenodd" class="shp0" d="M364.62 68.43C365.35 68.05 366.1 67.72 366.88 67.43C367.65 67.15 368.44 66.91 369.24 66.73C370.04 66.54 370.85 66.4 371.67 66.32C372.49 66.23 373.31 66.19 374.13 66.21C375.14 66.2 376.15 66.26 377.16 66.39C378.16 66.52 379.16 66.73 380.13 67C381.11 67.27 382.06 67.62 382.99 68.02C383.91 68.43 384.81 68.9 385.67 69.44C386.55 70 387.38 70.62 388.18 71.3C388.97 71.97 389.71 72.7 390.4 73.48C391.09 74.26 391.73 75.09 392.3 75.96C392.88 76.82 393.39 77.73 393.84 78.67C394.36 79.75 394.81 80.86 395.2 82C395.58 83.13 395.9 84.29 396.16 85.46C396.41 86.64 396.59 87.82 396.71 89.02C396.82 90.21 396.87 91.41 396.84 92.61C396.87 93.81 396.82 95.02 396.71 96.22C396.59 97.42 396.41 98.61 396.16 99.79C395.91 100.96 395.58 102.12 395.2 103.27C394.81 104.41 394.36 105.52 393.84 106.61C393.39 107.56 392.88 108.47 392.3 109.34C391.73 110.22 391.09 111.05 390.4 111.84C389.71 112.63 388.97 113.36 388.18 114.05C387.39 114.73 386.55 115.36 385.67 115.93C384.81 116.47 383.92 116.95 382.99 117.37C382.07 117.78 381.11 118.13 380.14 118.41C379.16 118.69 378.17 118.89 377.16 119.03C376.16 119.16 375.14 119.22 374.13 119.21C373.31 119.23 372.49 119.2 371.67 119.12C370.85 119.03 370.04 118.9 369.24 118.72C368.44 118.54 367.65 118.3 366.88 118.02C366.11 117.74 365.35 117.41 364.62 117.04C363.98 116.71 363.36 116.33 362.76 115.92C362.16 115.51 361.6 115.06 361.06 114.57C360.52 114.08 360.02 113.56 359.55 113.01C359.08 112.46 358.64 111.88 358.25 111.27L358.25 118.47L342.46 118.47L342.46 50.15L358.25 50.15L358.25 74.24C358.64 73.62 359.07 73.04 359.53 72.48C360 71.92 360.5 71.39 361.04 70.9C361.58 70.41 362.15 69.96 362.75 69.55C363.35 69.13 363.97 68.76 364.62 68.43ZM377.5 83.34C376.98 82.8 376.41 82.31 375.79 81.89C375.17 81.46 374.51 81.1 373.81 80.82C373.12 80.53 372.4 80.32 371.66 80.18C370.92 80.04 370.17 79.98 369.42 80C368.67 79.99 367.93 80.05 367.19 80.2C366.46 80.34 365.74 80.56 365.06 80.85C364.37 81.14 363.71 81.51 363.1 81.94C362.49 82.37 361.93 82.86 361.42 83.41C359.24 85.69 358.15 88.8 358.15 92.73C358.15 96.66 359.24 99.77 361.42 102.06C362.45 103.14 363.69 104 365.07 104.59C366.44 105.18 367.92 105.48 369.42 105.48C370.92 105.48 372.4 105.18 373.77 104.59C375.15 104 376.39 103.14 377.42 102.06C379.64 99.75 380.75 96.62 380.74 92.69C380.73 88.76 379.65 85.64 377.5 83.34Z" />
			<path id="Layer" fill-rule="evenodd" class="shp0" d="M415.85 96.49C415.86 97.17 415.94 97.85 416.08 98.51C416.22 99.18 416.43 99.83 416.69 100.46C416.96 101.09 417.28 101.69 417.66 102.25C418.04 102.82 418.47 103.35 418.95 103.83C419.4 104.25 419.88 104.62 420.4 104.95C420.92 105.27 421.47 105.54 422.04 105.76C422.62 105.98 423.21 106.14 423.81 106.24C424.42 106.34 425.03 106.39 425.64 106.37C429.58 106.37 432.32 104.7 433.85 101.37L450.66 101.37C450.23 103.07 449.6 104.71 448.8 106.27C448 107.83 447.02 109.29 445.89 110.63C444.76 111.97 443.48 113.18 442.07 114.23C440.67 115.28 439.15 116.17 437.55 116.88C436.66 117.27 435.75 117.62 434.82 117.91C433.89 118.21 432.95 118.45 431.99 118.65C431.04 118.84 430.08 118.99 429.11 119.08C428.14 119.17 427.16 119.2 426.19 119.19C425.02 119.21 423.86 119.16 422.7 119.04C421.53 118.92 420.38 118.72 419.25 118.45C418.11 118.18 416.99 117.84 415.9 117.43C414.81 117.02 413.74 116.54 412.71 116C411.74 115.47 410.81 114.88 409.93 114.22C409.04 113.56 408.21 112.83 407.43 112.05C406.65 111.27 405.92 110.44 405.26 109.55C404.6 108.67 404.01 107.74 403.48 106.77C402.91 105.7 402.41 104.59 401.99 103.46C401.56 102.32 401.2 101.16 400.92 99.98C400.64 98.8 400.44 97.61 400.31 96.4C400.18 95.19 400.13 93.98 400.16 92.77C400.13 91.56 400.18 90.35 400.31 89.14C400.43 87.94 400.64 86.74 400.91 85.56C401.19 84.38 401.54 83.22 401.96 82.09C402.38 80.95 402.88 79.84 403.44 78.77C403.96 77.8 404.55 76.87 405.2 75.98C405.86 75.1 406.58 74.26 407.35 73.48C408.13 72.7 408.96 71.98 409.84 71.32C410.72 70.66 411.65 70.06 412.62 69.54C414.69 68.49 416.88 67.68 419.14 67.14C421.4 66.6 423.72 66.32 426.04 66.31C428.37 66.3 430.69 66.57 432.95 67.09C435.21 67.62 437.41 68.41 439.49 69.45C440.44 69.96 441.36 70.54 442.23 71.19C443.09 71.83 443.92 72.53 444.68 73.29C445.45 74.06 446.17 74.87 446.82 75.73C447.47 76.59 448.06 77.5 448.58 78.45C449.14 79.48 449.63 80.56 450.06 81.65C450.48 82.75 450.83 83.88 451.1 85.02C451.38 86.17 451.58 87.33 451.71 88.5C451.84 89.67 451.89 90.84 451.86 92.02C451.86 92.39 451.85 92.77 451.84 93.14C451.82 93.51 451.8 93.89 451.78 94.26C451.76 94.63 451.73 95 451.7 95.38C451.66 95.75 451.62 96.12 451.58 96.49L415.85 96.49ZM435.7 87.72C435.73 87.11 435.68 86.51 435.58 85.91C435.47 85.31 435.29 84.73 435.05 84.17C434.81 83.62 434.51 83.09 434.16 82.6C433.8 82.11 433.39 81.66 432.93 81.26C432.45 80.86 431.94 80.5 431.4 80.19C430.85 79.88 430.28 79.62 429.69 79.42C429.1 79.21 428.49 79.06 427.88 78.97C427.26 78.88 426.63 78.84 426.01 78.86C425.41 78.84 424.8 78.88 424.2 78.97C423.61 79.06 423.02 79.2 422.45 79.4C421.88 79.6 421.33 79.85 420.8 80.14C420.27 80.44 419.77 80.78 419.31 81.17C418.84 81.59 418.41 82.05 418.03 82.55C417.64 83.04 417.3 83.57 417.02 84.13C416.73 84.69 416.49 85.27 416.31 85.88C416.13 86.48 416.01 87.1 415.94 87.72L435.7 87.72Z" />
			<path id="Layer" class="shp0" d="M504.15 72.26C507.75 76.17 509.55 81.54 509.55 88.37L509.55 118.46L493.86 118.46L493.86 90.46C493.86 87.01 492.97 84.34 491.18 82.46C490.22 81.55 489.09 80.83 487.85 80.34C486.62 79.85 485.31 79.6 483.98 79.6C482.65 79.6 481.34 79.85 480.11 80.34C478.87 80.83 477.74 81.55 476.78 82.46C474.99 84.37 474.1 87.04 474.1 90.46L474.1 118.46L458.32 118.46L458.32 67L474.1 67L474.1 73.83C474.51 73.25 474.96 72.7 475.44 72.18C475.93 71.66 476.44 71.17 476.99 70.71C477.53 70.26 478.11 69.84 478.71 69.46C479.3 69.07 479.93 68.73 480.57 68.43C481.28 68.09 482.01 67.79 482.75 67.54C483.49 67.28 484.25 67.07 485.02 66.9C485.79 66.74 486.56 66.61 487.35 66.53C488.13 66.45 488.91 66.42 489.7 66.43C495.74 66.41 500.56 68.35 504.15 72.26Z" />
			<path id="Layer" class="shp0" d="M564.53 72.26C568.13 76.17 569.93 81.54 569.93 88.37L569.93 118.46L554.23 118.46L554.23 90.46C554.23 87.01 553.34 84.34 551.56 82.46C550.59 81.55 549.46 80.83 548.23 80.34C547 79.85 545.68 79.6 544.36 79.6C543.03 79.6 541.71 79.85 540.48 80.34C539.25 80.83 538.12 81.55 537.15 82.46C535.37 84.37 534.48 87.04 534.48 90.46L534.48 118.46L518.69 118.46L518.69 67L534.48 67L534.48 73.83C534.89 73.25 535.34 72.7 535.82 72.18C536.3 71.66 536.82 71.17 537.36 70.71C537.91 70.26 538.48 69.84 539.08 69.46C539.68 69.07 540.3 68.73 540.94 68.43C541.65 68.09 542.38 67.79 543.12 67.54C543.87 67.28 544.63 67.07 545.39 66.9C546.16 66.74 546.94 66.61 547.72 66.53C548.51 66.45 549.29 66.42 550.08 66.43C556.11 66.41 560.93 68.35 564.53 72.26Z" />
			<path id="Layer" class="shp0" d="M580.22 59.15C579.8 58.77 579.42 58.35 579.09 57.9C578.76 57.44 578.48 56.95 578.25 56.44C578.03 55.92 577.86 55.38 577.75 54.83C577.63 54.28 577.58 53.71 577.59 53.15C577.57 52.57 577.62 52 577.73 51.43C577.84 50.87 578.01 50.32 578.23 49.79C578.46 49.26 578.74 48.75 579.07 48.29C579.41 47.82 579.79 47.39 580.22 47C580.68 46.58 581.17 46.21 581.7 45.89C582.23 45.58 582.79 45.31 583.37 45.1C583.95 44.88 584.55 44.73 585.16 44.63C585.77 44.53 586.38 44.5 587 44.52C587.61 44.5 588.22 44.54 588.82 44.64C589.43 44.74 590.02 44.89 590.59 45.1C591.17 45.32 591.72 45.58 592.24 45.9C592.76 46.22 593.25 46.59 593.7 47C594.13 47.39 594.51 47.82 594.84 48.28C595.18 48.75 595.46 49.25 595.69 49.78C595.91 50.31 596.08 50.86 596.19 51.43C596.3 51.99 596.34 52.57 596.33 53.14C596.33 53.7 596.28 54.26 596.17 54.82C596.05 55.37 595.88 55.91 595.66 56.42C595.43 56.94 595.15 57.43 594.82 57.88C594.49 58.34 594.12 58.76 593.7 59.14C593.25 59.55 592.76 59.92 592.24 60.23C591.71 60.55 591.16 60.81 590.59 61.02C590.02 61.23 589.43 61.38 588.82 61.48C588.22 61.57 587.61 61.61 587 61.59C586.38 61.62 585.77 61.58 585.16 61.49C584.55 61.39 583.95 61.24 583.37 61.03C582.79 60.82 582.23 60.56 581.7 60.24C581.18 59.93 580.68 59.56 580.22 59.15L580.22 59.15ZM594.85 67L594.85 118.51L579.07 118.51L579.07 67L594.85 67Z" />
			<path id="Layer" fill-rule="evenodd" class="shp0" d="M617 96.49C617.01 97.17 617.09 97.85 617.23 98.51C617.37 99.18 617.57 99.83 617.84 100.46C618.1 101.09 618.42 101.69 618.8 102.25C619.18 102.82 619.61 103.35 620.09 103.83C620.54 104.25 621.02 104.62 621.54 104.95C622.06 105.27 622.61 105.54 623.18 105.76C623.76 105.98 624.35 106.14 624.95 106.24C625.56 106.34 626.17 106.39 626.78 106.37C630.72 106.37 633.46 104.7 635 101.37L651.8 101.37C651.59 102.21 651.33 103.03 651.03 103.84C650.72 104.64 650.38 105.43 649.98 106.2C649.59 106.97 649.16 107.72 648.68 108.44C648.21 109.16 647.69 109.85 647.14 110.51C646.57 111.19 645.96 111.84 645.31 112.45C644.67 113.07 643.99 113.64 643.28 114.18C642.57 114.71 641.83 115.21 641.06 115.66C640.3 116.11 639.5 116.52 638.69 116.88C637.8 117.27 636.89 117.62 635.96 117.91C635.04 118.21 634.09 118.45 633.14 118.65C632.19 118.84 631.22 118.99 630.25 119.08C629.29 119.17 628.31 119.2 627.34 119.19C626.17 119.21 625.01 119.16 623.85 119.04C622.69 118.92 621.54 118.72 620.4 118.45C619.27 118.18 618.15 117.84 617.06 117.43C615.97 117.02 614.9 116.54 613.87 116C612.9 115.47 611.97 114.88 611.09 114.22C610.2 113.56 609.37 112.83 608.59 112.05C607.81 111.27 607.08 110.44 606.42 109.55C605.76 108.67 605.17 107.74 604.64 106.77C604.07 105.7 603.57 104.59 603.14 103.46C602.71 102.32 602.36 101.16 602.08 99.98C601.8 98.8 601.59 97.61 601.46 96.4C601.33 95.2 601.28 93.98 601.31 92.77C601.28 91.56 601.33 90.35 601.46 89.14C601.58 87.94 601.79 86.74 602.06 85.56C602.34 84.38 602.69 83.22 603.11 82.09C603.53 80.95 604.03 79.84 604.59 78.77C605.11 77.8 605.7 76.87 606.36 75.98C607.01 75.1 607.73 74.26 608.51 73.48C609.29 72.7 610.12 71.98 611 71.32C611.88 70.66 612.81 70.06 613.78 69.54C615.85 68.49 618.04 67.68 620.3 67.14C622.56 66.6 624.88 66.32 627.2 66.31C629.52 66.3 631.84 66.57 634.1 67.09C636.37 67.62 638.56 68.41 640.64 69.45C641.59 69.96 642.51 70.54 643.38 71.18C644.25 71.83 645.07 72.53 645.84 73.29C646.61 74.05 647.32 74.87 647.97 75.73C648.62 76.59 649.21 77.5 649.73 78.45C650.28 79.47 650.77 80.53 651.19 81.62C651.61 82.7 651.96 83.82 652.23 84.95C652.51 86.08 652.71 87.23 652.84 88.38C652.97 89.54 653.02 90.71 653 91.87C653 92.26 652.99 92.64 652.98 93.03C652.97 93.41 652.96 93.8 652.93 94.18C652.91 94.57 652.88 94.95 652.85 95.34C652.81 95.72 652.78 96.11 652.73 96.49L617 96.49ZM636.85 87.72C636.88 87.11 636.83 86.51 636.73 85.91C636.62 85.32 636.44 84.73 636.2 84.18C635.97 83.62 635.67 83.09 635.31 82.6C634.96 82.11 634.55 81.66 634.09 81.26C633.61 80.86 633.1 80.5 632.55 80.19C632.01 79.88 631.44 79.62 630.85 79.42C630.26 79.21 629.65 79.06 629.03 78.97C628.41 78.88 627.79 78.84 627.16 78.86C626.56 78.84 625.95 78.88 625.36 78.97C624.76 79.06 624.17 79.21 623.6 79.4C623.03 79.6 622.48 79.85 621.96 80.14C621.43 80.44 620.93 80.78 620.47 81.17C620 81.59 619.57 82.05 619.19 82.54C618.8 83.04 618.46 83.57 618.17 84.13C617.89 84.69 617.65 85.27 617.47 85.88C617.29 86.48 617.17 87.1 617.1 87.72L636.85 87.72Z" />
			<path id="Layer" class="shp0" d="M372.51 166.33L364 166.33L364 204.74L348.23 204.74L348.23 166.33L342.5 166.33L342.5 153.22L348.23 153.22L348.23 151.75C348.23 145.41 350.04 140.59 353.67 137.3C357.3 134.01 362.63 132.36 369.67 132.36C370.84 132.36 371.67 132.36 372.26 132.45L372.26 145.84C369.26 145.66 367.12 146.08 365.89 147.13C364.66 148.18 364.04 150.06 364.04 152.76L364.04 153.22L372.54 153.22L372.51 166.33Z" />
			<path id="Layer" fill-rule="evenodd" class="shp0" d="M390.6 182.77C390.61 183.45 390.69 184.13 390.83 184.79C390.97 185.46 391.17 186.11 391.44 186.73C391.7 187.36 392.02 187.96 392.4 188.53C392.78 189.09 393.21 189.62 393.69 190.1C394.14 190.52 394.62 190.89 395.14 191.22C395.66 191.54 396.21 191.81 396.78 192.03C397.36 192.25 397.95 192.41 398.55 192.51C399.16 192.61 399.77 192.66 400.38 192.64C404.32 192.64 407.06 190.97 408.6 187.64L425.4 187.64C425.19 188.48 424.93 189.3 424.63 190.11C424.33 190.92 423.98 191.7 423.59 192.47C423.19 193.24 422.76 193.99 422.28 194.71C421.81 195.43 421.29 196.12 420.74 196.78C420.17 197.46 419.56 198.11 418.92 198.73C418.27 199.34 417.59 199.91 416.88 200.45C416.17 200.99 415.43 201.48 414.66 201.93C413.9 202.38 413.1 202.79 412.29 203.15C411.4 203.54 410.49 203.89 409.56 204.18C408.64 204.48 407.69 204.72 406.74 204.92C405.79 205.11 404.82 205.26 403.85 205.35C402.89 205.44 401.91 205.47 400.94 205.46C399.77 205.48 398.6 205.43 397.44 205.3C396.28 205.17 395.13 204.97 393.99 204.7C392.86 204.43 391.74 204.08 390.65 203.67C389.56 203.25 388.49 202.77 387.46 202.22C386.49 201.69 385.56 201.1 384.67 200.44C383.79 199.78 382.95 199.06 382.17 198.28C381.39 197.5 380.67 196.66 380.01 195.78C379.35 194.89 378.76 193.96 378.23 192.99C377.66 191.92 377.16 190.81 376.73 189.68C376.31 188.54 375.95 187.38 375.67 186.2C375.39 185.02 375.19 183.83 375.06 182.62C374.93 181.42 374.88 180.2 374.91 178.99C374.88 177.78 374.93 176.57 375.06 175.36C375.18 174.16 375.38 172.96 375.66 171.78C375.93 170.6 376.28 169.44 376.71 168.31C377.13 167.17 377.62 166.06 378.18 164.99C378.7 164.02 379.29 163.09 379.95 162.2C380.6 161.32 381.32 160.48 382.1 159.7C382.88 158.92 383.71 158.2 384.59 157.54C385.47 156.88 386.4 156.28 387.37 155.76C389.44 154.71 391.63 153.9 393.89 153.35C396.15 152.81 398.46 152.53 400.79 152.52C403.11 152.51 405.43 152.77 407.69 153.3C409.96 153.83 412.15 154.62 414.23 155.66C415.18 156.17 416.1 156.75 416.97 157.39C417.84 158.04 418.66 158.74 419.43 159.5C420.2 160.26 420.91 161.08 421.56 161.94C422.21 162.8 422.8 163.71 423.32 164.66C423.88 165.69 424.38 166.76 424.8 167.86C425.22 168.96 425.57 170.09 425.85 171.23C426.12 172.37 426.33 173.54 426.45 174.71C426.58 175.88 426.63 177.05 426.6 178.23C426.6 178.61 426.59 178.99 426.58 179.37C426.57 179.75 426.55 180.13 426.53 180.5C426.5 180.88 426.48 181.26 426.44 181.64C426.41 182.02 426.37 182.39 426.33 182.77L390.6 182.77ZM410.45 174C410.48 173.39 410.43 172.79 410.32 172.19C410.21 171.59 410.04 171.01 409.8 170.45C409.56 169.89 409.26 169.36 408.9 168.87C408.55 168.38 408.14 167.93 407.68 167.53C407.2 167.13 406.69 166.77 406.14 166.46C405.6 166.15 405.03 165.89 404.44 165.69C403.85 165.48 403.24 165.33 402.62 165.24C402 165.15 401.38 165.11 400.75 165.13C400.15 165.11 399.54 165.15 398.95 165.24C398.35 165.33 397.76 165.48 397.19 165.67C396.62 165.87 396.07 166.12 395.55 166.41C395.02 166.71 394.52 167.05 394.06 167.44C393.59 167.86 393.16 168.32 392.77 168.82C392.39 169.31 392.05 169.85 391.76 170.41C391.48 170.97 391.24 171.55 391.06 172.15C390.88 172.76 390.76 173.37 390.69 174L410.45 174Z" />
			<path id="Layer" class="shp0" d="M455.77 155.12C456.47 154.71 457.19 154.35 457.93 154.04C458.68 153.73 459.44 153.47 460.22 153.27C461 153.06 461.79 152.91 462.59 152.81C463.39 152.71 464.19 152.66 465 152.67L465 169.38L460.66 169.38C456.73 169.38 453.77 170.23 451.8 171.92C449.83 173.61 448.85 176.58 448.85 180.83L448.85 204.74L433.06 204.74L433.06 153.22L448.85 153.22L448.85 161.81C449.29 161.13 449.76 160.47 450.27 159.85C450.79 159.22 451.34 158.62 451.92 158.06C452.5 157.5 453.11 156.97 453.76 156.48C454.4 155.99 455.07 155.53 455.77 155.12Z" />
			<path id="Layer" class="shp0" d="M493.44 155.12C494.14 154.71 494.86 154.35 495.6 154.04C496.35 153.73 497.11 153.47 497.89 153.27C498.67 153.06 499.46 152.91 500.26 152.81C501.06 152.71 501.86 152.66 502.67 152.67L502.67 169.38L498.33 169.38C494.39 169.38 491.44 170.23 489.47 171.92C487.5 173.61 486.5 176.58 486.47 180.83L486.47 204.74L470.73 204.74L470.73 153.22L486.51 153.22L486.51 161.81C486.95 161.13 487.42 160.47 487.94 159.85C488.45 159.22 489 158.62 489.58 158.06C490.17 157.5 490.78 156.97 491.43 156.48C492.07 155.99 492.74 155.53 493.44 155.12L493.44 155.12Z" />
			<path id="Layer" fill-rule="evenodd" class="shp0" d="M521 182.77C521.01 183.45 521.08 184.12 521.21 184.78C521.34 185.45 521.54 186.1 521.79 186.72C522.05 187.35 522.37 187.95 522.74 188.52C523.11 189.08 523.53 189.61 524 190.1C524.45 190.52 524.93 190.89 525.45 191.22C525.97 191.54 526.52 191.81 527.09 192.03C527.67 192.25 528.26 192.41 528.86 192.51C529.47 192.61 530.08 192.66 530.69 192.64C534.63 192.64 537.37 190.97 538.91 187.64L555.71 187.64C555.28 189.34 554.66 190.99 553.85 192.54C553.05 194.1 552.08 195.57 550.94 196.91C549.81 198.25 548.53 199.45 547.13 200.5C545.72 201.55 544.2 202.44 542.6 203.15C541.71 203.54 540.8 203.89 539.87 204.18C538.95 204.48 538 204.72 537.05 204.92C536.1 205.11 535.13 205.26 534.16 205.35C533.2 205.44 532.22 205.47 531.25 205.46C530.08 205.48 528.91 205.43 527.75 205.3C526.59 205.17 525.44 204.97 524.3 204.7C523.17 204.43 522.05 204.08 520.96 203.67C519.87 203.25 518.8 202.77 517.77 202.22C516.8 201.69 515.87 201.1 514.98 200.44C514.1 199.78 513.26 199.06 512.48 198.28C511.7 197.5 510.98 196.66 510.32 195.78C509.66 194.89 509.07 193.96 508.54 192.99C507.97 191.92 507.47 190.81 507.04 189.68C506.61 188.54 506.26 187.38 505.98 186.2C505.69 185.02 505.49 183.83 505.36 182.62C505.23 181.42 505.18 180.2 505.21 178.99C505.18 177.78 505.23 176.57 505.36 175.36C505.49 174.16 505.69 172.96 505.96 171.78C506.24 170.6 506.59 169.44 507.01 168.31C507.44 167.17 507.93 166.06 508.49 164.99C509.01 164.02 509.6 163.09 510.25 162.2C510.91 161.32 511.63 160.48 512.41 159.7C513.18 158.92 514.02 158.2 514.9 157.54C515.78 156.88 516.71 156.28 517.68 155.76C519.75 154.71 521.94 153.9 524.2 153.35C526.46 152.81 528.77 152.53 531.1 152.52C533.42 152.51 535.74 152.77 538 153.3C540.27 153.83 542.46 154.62 544.54 155.66C545.49 156.17 546.41 156.75 547.28 157.39C548.15 158.04 548.97 158.74 549.74 159.5C550.51 160.26 551.22 161.08 551.87 161.94C552.52 162.8 553.11 163.71 553.63 164.66C554.2 165.69 554.69 166.75 555.12 167.84C555.55 168.93 555.91 170.05 556.19 171.19C556.48 172.32 556.69 173.48 556.82 174.64C556.96 175.81 557.02 176.98 557 178.15C557 178.54 556.98 178.92 556.97 179.31C556.95 179.69 556.93 180.08 556.9 180.46C556.88 180.85 556.84 181.23 556.8 181.62C556.76 182 556.72 182.39 556.67 182.77L521 182.77ZM540.79 174C540.82 173.39 540.78 172.79 540.67 172.19C540.56 171.59 540.38 171.01 540.14 170.45C539.91 169.89 539.61 169.36 539.25 168.87C538.9 168.38 538.49 167.93 538.03 167.53C537.55 167.13 537.04 166.77 536.49 166.46C535.95 166.15 535.38 165.89 534.79 165.69C534.2 165.48 533.59 165.33 532.97 165.24C532.35 165.15 531.73 165.11 531.1 165.13C530.5 165.11 529.89 165.15 529.3 165.24C528.7 165.33 528.11 165.48 527.54 165.67C526.97 165.87 526.42 166.12 525.9 166.41C525.37 166.71 524.87 167.05 524.41 167.44C523.94 167.86 523.5 168.32 523.11 168.81C522.72 169.31 522.38 169.84 522.09 170.4C521.8 170.96 521.56 171.55 521.38 172.15C521.2 172.75 521.07 173.37 521 174L540.79 174Z" />
			<path id="Layer" class="shp0" d="M564.57 145.42C564.15 145.04 563.77 144.63 563.44 144.17C563.11 143.71 562.83 143.22 562.6 142.71C562.37 142.19 562.2 141.65 562.09 141.1C561.98 140.55 561.92 139.98 561.93 139.42C561.92 138.85 561.96 138.27 562.07 137.71C562.18 137.14 562.35 136.59 562.58 136.06C562.81 135.53 563.09 135.03 563.42 134.56C563.76 134.1 564.14 133.67 564.57 133.28C565.03 132.87 565.52 132.5 566.05 132.18C566.58 131.87 567.14 131.6 567.72 131.39C568.3 131.18 568.9 131.03 569.51 130.93C570.12 130.84 570.73 130.81 571.35 130.83C571.96 130.81 572.57 130.84 573.17 130.94C573.77 131.04 574.36 131.19 574.94 131.4C575.51 131.61 576.06 131.87 576.58 132.19C577.1 132.5 577.59 132.87 578.04 133.28C578.47 133.67 578.85 134.1 579.18 134.56C579.52 135.03 579.8 135.53 580.03 136.06C580.25 136.59 580.42 137.14 580.53 137.71C580.64 138.27 580.68 138.85 580.67 139.42C580.68 139.98 580.63 140.55 580.52 141.1C580.4 141.65 580.23 142.19 580.01 142.71C579.78 143.22 579.5 143.71 579.17 144.17C578.84 144.62 578.46 145.04 578.04 145.42C577.59 145.83 577.1 146.2 576.58 146.51C576.06 146.83 575.51 147.09 574.94 147.3C574.36 147.51 573.77 147.67 573.17 147.76C572.57 147.86 571.96 147.89 571.35 147.87C570.73 147.9 570.12 147.86 569.51 147.77C568.9 147.67 568.3 147.52 567.72 147.31C567.14 147.1 566.58 146.84 566.05 146.52C565.52 146.2 565.03 145.83 564.57 145.42ZM579.2 153.22L579.2 204.74L563.41 204.74L563.41 153.22L579.2 153.22Z" />
			<path id="Layer" class="shp0" d="M611.51 155.12C612.21 154.71 612.93 154.35 613.67 154.04C614.42 153.73 615.18 153.47 615.96 153.27C616.74 153.06 617.53 152.91 618.33 152.81C619.13 152.71 619.93 152.66 620.74 152.67L620.74 169.38L616.4 169.38C612.46 169.38 609.51 170.23 607.54 171.92C605.57 173.61 604.59 176.58 604.59 180.83L604.59 204.74L588.8 204.74L588.8 153.22L604.59 153.22L604.59 161.81C605.03 161.13 605.5 160.47 606.01 159.84C606.53 159.22 607.07 158.62 607.66 158.06C608.24 157.5 608.85 156.97 609.5 156.48C610.14 155.99 610.81 155.53 611.51 155.12Z" />
			<path id="Layer" fill-rule="evenodd" class="shp0" d="M626.33 165C626.78 164.06 627.29 163.15 627.86 162.29C628.44 161.42 629.07 160.59 629.76 159.81C630.45 159.03 631.19 158.3 631.98 157.62C632.77 156.95 633.61 156.33 634.49 155.77C635.35 155.23 636.24 154.75 637.16 154.34C638.08 153.93 639.04 153.58 640.01 153.3C640.98 153.02 641.97 152.81 642.98 152.68C643.98 152.54 644.99 152.47 646 152.48C646.83 152.46 647.65 152.5 648.48 152.58C649.3 152.67 650.11 152.8 650.92 152.99C651.72 153.18 652.52 153.41 653.29 153.7C654.07 153.99 654.83 154.32 655.56 154.7C656.2 155.03 656.82 155.41 657.42 155.82C658.01 156.24 658.58 156.69 659.11 157.19C659.64 157.68 660.14 158.2 660.61 158.76C661.07 159.32 661.5 159.91 661.88 160.52L661.88 153.22L677.7 153.22L677.7 204.74L661.91 204.74L661.91 197.44C661.51 198.05 661.07 198.64 660.6 199.19C660.12 199.75 659.62 200.27 659.07 200.76C658.53 201.25 657.96 201.71 657.36 202.13C656.76 202.54 656.14 202.92 655.49 203.26C654.76 203.64 654 203.98 653.23 204.26C652.45 204.55 651.66 204.79 650.85 204.97C650.05 205.16 649.24 205.3 648.41 205.38C647.59 205.47 646.77 205.5 645.94 205.48C644.93 205.49 643.93 205.42 642.93 205.29C641.93 205.15 640.95 204.95 639.98 204.67C639.01 204.39 638.06 204.05 637.14 203.63C636.23 203.22 635.34 202.74 634.49 202.2C633.61 201.63 632.77 201 631.98 200.32C631.19 199.63 630.45 198.89 629.76 198.11C629.07 197.32 628.43 196.48 627.86 195.61C627.29 194.73 626.78 193.82 626.33 192.87C625.34 190.68 624.59 188.4 624.08 186.05C623.58 183.7 623.32 181.31 623.32 178.91C623.32 176.51 623.58 174.12 624.08 171.77C624.59 169.42 625.34 167.14 626.33 164.95L626.33 165ZM658.63 169.71C657.6 168.63 656.35 167.77 654.98 167.19C653.6 166.6 652.12 166.3 650.63 166.3C649.14 166.3 647.66 166.6 646.28 167.19C644.91 167.77 643.66 168.63 642.63 169.71C640.45 171.96 639.36 175.06 639.36 178.99C639.36 182.92 640.45 186.05 642.63 188.36C643.66 189.45 644.9 190.32 646.27 190.91C647.65 191.5 649.13 191.81 650.63 191.81C652.13 191.81 653.61 191.5 654.99 190.91C656.36 190.32 657.6 189.45 658.63 188.36C660.82 186.09 661.92 182.98 661.91 179.04C661.9 175.1 660.81 171.97 658.63 169.66L658.63 169.71Z" />
		</g>
	</g>
</svg>